<svg xmlns="http://www.w3.org/2000/svg" height="1024" preserveAspectRatio="none" style="display: block;" version="1.1" viewBox="456.4 455.8 1137.1 1137.1" width="1024">
<path d="M 1024.26 936.604 C 1025.18 937.912 1026.08 939.237 1026.95 940.578 C 1028.24 962.411 1035.61 984.968 1052.36 999.773 C 1071.64 1016.81 1093.02 1018.47 1117.04 1021.54 C 1088.66 1025.36 1062.32 1027.81 1043.11 1052.53 C 1033.34 1065.1 1027.21 1086.75 1026.94 1102.46 C 1026.2 1104.92 1026.24 1109.46 1024.26 1109.57 C 1022.39 1085.44 1017.46 1062.01 999.369 1044.37 C 987.363 1032.67 962.443 1022.73 945.965 1023.11 C 945.125 1022.75 942.33 1021.95 941.864 1021.4 C 941.784 1020.82 941.994 1020.82 942.488 1020.16 C 961.031 1020.09 982.65 1012.93 996.837 1000.85 C 1017.26 983.456 1021.93 962.079 1024.26 936.604 z" fill="rgb(147,105,30)" transform="translate(0,0)"></path>
<path d="M 1015.2 1173.37 L 1035.02 1173.5 L 1035.34 1479.14 L 1015.16 1479.01 C 1014.5 1435.54 1015.06 1390.62 1015.07 1347.05 L 1015.2 1173.37 z" fill="rgb(147,105,30)" transform="translate(0,0)"></path>
<path d="M 579.449 1011.96 L 873.218 1012.01 L 873.252 1032.99 C 843.896 1032.15 811.938 1032.67 782.419 1032.64 L 579.355 1032.75 L 579.449 1011.96 z" fill="rgb(147,105,30)" transform="translate(0,0)"></path>
<path d="M 1015.7 569.476 L 1035.25 569.481 L 1035.21 874.826 C 1029.84 875.18 1021.25 874.954 1015.63 874.988 C 1014.56 844.535 1015.18 810.824 1015.1 779.969 C 1014.92 709.804 1015.12 639.639 1015.7 569.476 z" fill="rgb(147,105,30)" transform="translate(0,0)"></path>
<path d="M 1177.15 1012.38 L 1469.94 1011.98 C 1470.27 1019 1470.64 1025.75 1470.58 1032.78 L 1176.98 1033.23 L 1177.15 1012.38 z" fill="rgb(147,105,30)" transform="translate(0,0)"></path>
<path d="M 1024.26 936.604 C 1023.78 933.368 1023.91 922.853 1024.82 919.793 C 1025.03 919.618 1024.91 919.66 1025.19 919.665 C 1026.13 920.448 1027.08 938.067 1026.95 940.578 C 1026.08 939.237 1025.18 937.912 1024.26 936.604 z" fill="rgb(199,174,143)" transform="translate(0,0)"></path>
<path d="M 945.965 1023.11 C 943.553 1023.2 927.227 1021.91 926.784 1021.48 C 928.661 1020.1 940.118 1019.75 942.488 1020.16 C 941.994 1020.82 941.784 1020.82 941.864 1021.4 C 942.33 1021.95 945.125 1022.75 945.965 1023.11 z" fill="rgb(219,210,192)" transform="translate(0,0)"></path>
<path d="M 1024.26 1109.57 C 1026.24 1109.46 1026.2 1104.92 1026.94 1102.46 C 1026.95 1109.11 1026.02 1113.83 1025.89 1120.56 C 1025.26 1118.02 1024.62 1115.49 1023.96 1112.95 C 1024.08 1111.78 1024.18 1110.76 1024.26 1109.57 z" fill="rgb(199,174,143)" transform="translate(0,0)"></path>
<path d="M 1023.96 1112.95 C 1024.62 1115.49 1025.26 1118.02 1025.89 1120.56 C 1025.97 1121.38 1026.34 1126.91 1025.2 1127.09 C 1023.73 1125.57 1023.94 1115.29 1023.96 1112.95 z" fill="rgb(219,210,192)" transform="translate(0,0)"></path>
<metadata><recraft-signature>{"signed_by": "recraft", "signature_b64": "7bHpW5wSYC+gwT3opGicbDufWFThQVUgL94oolAwuSeF674A1K1V85dKzHG0zLRwusNgaScnTG2BOIGcZ8dMCA==", "signing_algo": "Ed25519", "generation_timestamp": 1783260078, "identifier": "220194e2-d7d6-4a61-905d-82742dd65498"}</recraft-signature></metadata></svg>