<svg xmlns="http://www.w3.org/2000/svg" height="1024" preserveAspectRatio="none" style="display: block;" version="1.1" viewBox="136.2 94.3 1778.7 1778.7" width="1024">
<path d="M 656.592 1019.42 C 680.39 1017.6 712.687 1022.69 734.906 1031.13 C 786.858 1050.87 822.675 1087.66 845.768 1137.51 C 846.105 1136.65 846.457 1135.8 846.822 1134.95 C 889.003 1037.22 1009.19 995.611 1104.96 1037.59 C 1149.48 1056.86 1184.5 1093.08 1202.26 1138.23 C 1216.25 1106.84 1231.31 1084.48 1258.25 1062.75 C 1356.91 983.19 1508.06 1016.54 1561.18 1133.48 C 1569.69 1151.92 1574.84 1171.72 1576.37 1191.97 C 1577.93 1211.14 1577.06 1242.87 1577.09 1262.94 L 1577.07 1399.11 L 1577.1 1562.33 C 1577.1 1589.73 1577.28 1617.29 1576.9 1644.69 C 1576.6 1666.1 1564.17 1682.72 1544.83 1691.4 C 1526.08 1697.1 1447.63 1695.06 1424.5 1693.11 C 1410.83 1691.95 1393.96 1678.94 1385.67 1667.02 C 1382.85 1671.13 1379.65 1675.1 1375.99 1678.5 C 1367.94 1686.03 1357.89 1691.09 1347.05 1693.07 C 1338.94 1694.53 1320.57 1694.31 1311.66 1694.34 L 1255.55 1694.49 L 1134.77 1694.53 C 1117.4 1694.48 1099.68 1694.81 1082.33 1694.43 C 1054.84 1693.82 1044.54 1688.32 1026.39 1668.77 C 1024.62 1670.72 1022.8 1672.63 1020.94 1674.49 C 999.876 1695.25 981.936 1694.54 953.912 1694.12 C 940.444 1693.91 926.031 1694.08 912.507 1694.14 L 728.956 1694.63 C 696.735 1694.59 687.619 1692.15 664.692 1669.21 C 653.824 1681.89 640.59 1692.29 622.879 1693.63 C 601.659 1695.22 580.046 1694.28 558.742 1694.45 C 544.193 1693.75 527.603 1695.7 513.303 1693.16 C 492.884 1689.53 476.012 1670.31 475.239 1650.02 C 473.888 1614.55 474.307 1579.42 474.421 1544.17 L 474.237 1389.87 L 474.065 1260.27 C 474.074 1233.12 472.555 1194.84 477.598 1168.91 C 494.506 1081.99 572.053 1024.94 656.592 1019.42 z" fill="rgb(31,77,61)" transform="translate(0,0)"></path>
<path d="M 1366.98 1045.41 C 1393.39 1042.07 1427.32 1048.39 1451.58 1058.72 C 1491.48 1075.84 1523.09 1107.91 1539.64 1148.06 C 1555.97 1188.7 1551.9 1229.85 1551.96 1272.87 L 1552.07 1404.64 L 1552.09 1563.3 C 1552.07 1590.53 1552.16 1617.76 1551.76 1644.98 C 1551.85 1654.16 1545.67 1664.61 1536.32 1666.81 C 1523.09 1669.92 1507.93 1668.84 1494.16 1668.92 C 1474.64 1669.03 1454.47 1669.33 1434.97 1668.64 C 1429.92 1668.46 1419.92 1665.96 1415.93 1663.3 C 1395.69 1649.77 1397.34 1631.19 1397.88 1609.74 C 1398.06 1600.9 1398.08 1591.49 1398.1 1582.55 L 1398.08 1422.55 C 1398.08 1406.02 1400.26 1342.17 1396.43 1330.63 C 1396.34 1330.33 1396.22 1330.05 1396.12 1329.76 C 1387.05 1321.17 1374.21 1321.24 1373.09 1334.77 C 1371.65 1352.17 1372.35 1371.9 1372.3 1389.59 L 1372.07 1557.19 L 1372.16 1607.29 C 1372.26 1631.66 1375 1662.82 1341.6 1668.08 C 1329.47 1669.98 1302.45 1669.8 1288.85 1668.86 C 1267.74 1667.41 1219.64 1679.33 1217.05 1649.54 C 1215.44 1622 1216.02 1594.67 1216.01 1567.84 L 1215.96 1415.25 L 1215.94 1268.94 C 1215.94 1243.38 1214.6 1203.46 1218.42 1179.72 C 1222.53 1152.84 1233.66 1127.54 1250.69 1106.35 C 1280.06 1070.27 1320.97 1049.99 1366.98 1045.41 z" fill="rgb(255,255,255)" transform="translate(0,0)"></path>
<path d="M 652.659 1045.4 C 679.026 1041.42 716.214 1049.98 740.091 1061.57 C 779.658 1080.12 810.978 1113.87 824.94 1155.55 C 837.307 1192.47 834.073 1234.17 834.059 1272.99 L 834.066 1403.67 L 834.079 1552.1 C 834.083 1579.03 836.9 1622.63 830.118 1649.54 C 828.737 1655.03 812.599 1667.62 806.529 1667.78 C 779.37 1668.47 735.304 1672.19 709.117 1667.99 C 704.016 1667.22 699.146 1665.34 694.847 1662.48 C 673.616 1648.51 678.596 1625.03 678.028 1603.14 C 677.833 1595.65 678.1 1588.01 678.108 1580.49 L 678.193 1402.18 C 678.208 1385.98 680.171 1343.09 677.142 1329.76 C 672.581 1324.58 669.485 1323.12 662.379 1323.51 C 653.845 1323.98 653.283 1334.82 653.18 1341.31 C 652.811 1364.69 653.063 1388.11 653.003 1411.5 L 652.903 1557.43 L 653.084 1605.86 C 653.135 1620.31 655 1638.41 646.738 1650.82 C 630.862 1674.68 601.834 1668.96 577.432 1668.88 C 558.753 1668.36 539.664 1670.09 521.047 1668.51 C 507.851 1667.39 500.668 1657.72 500.166 1645.02 C 499.315 1623.49 499.786 1601.85 499.857 1580.3 L 500.033 1448.29 L 499.961 1278.48 C 499.917 1256.53 500.295 1233.87 499.861 1212 C 498.035 1120.17 561.834 1055.2 652.659 1045.4 z" fill="rgb(255,255,255)" transform="translate(0,0)"></path>
<path d="M 1010.29 1047.39 C 1033.41 1044.12 1066.56 1049.22 1088.38 1057.63 C 1128.24 1073.3 1160.32 1104.05 1177.66 1143.22 C 1184.74 1159.6 1188.94 1177.08 1190.08 1194.89 C 1191.58 1215.87 1190.85 1242.74 1190.84 1264.1 L 1190.78 1382.83 L 1190.55 1533.11 C 1190.69 1566.3 1193.66 1617.4 1187.68 1651.18 C 1185.26 1657.19 1173.42 1667.03 1167.56 1667.59 C 1138.97 1670.36 1104.9 1669.77 1076.4 1668.56 C 1038.61 1666.95 1036.14 1632.55 1038.02 1603.37 C 1038.72 1592.66 1038.18 1577.58 1038.15 1566.13 L 1038.01 1384.63 C 1038.03 1374.51 1039.31 1337.52 1036.42 1329.42 C 1032.64 1325.06 1029.41 1322.82 1023.47 1323.23 C 1020.45 1323.44 1014.42 1328.31 1014.08 1331.01 C 1011.87 1348.12 1013.02 1366.81 1013 1384.24 L 1013.07 1551.5 L 1013.17 1604.8 C 1013.18 1619.25 1015.37 1639.07 1007.22 1651.08 C 1001.93 1659.23 991.429 1667.53 981.038 1668.15 C 947.827 1670.15 913.268 1668.61 879.922 1668.72 C 871.511 1668.74 859.807 1657.48 859.382 1649.39 C 858.263 1628.07 858.86 1606.22 858.871 1584.78 L 859.146 1439 L 858.847 1272.28 C 858.812 1249.64 858.095 1226.56 858.925 1203.97 C 862.192 1115.18 925.513 1058.01 1010.29 1047.39 z" fill="rgb(255,255,255)" transform="translate(0,0)"></path>
<path d="M 654.913 757.642 C 722.794 750.603 783.533 799.914 790.591 867.793 C 797.649 935.672 748.355 996.424 680.479 1003.5 C 612.575 1010.58 551.793 961.264 544.732 893.358 C 537.671 825.453 587.006 764.684 654.913 757.642 z" fill="rgb(31,77,61)" transform="translate(0,0)"></path>
<path d="M 658.41 783.033 C 711.979 777.977 759.611 817.045 765.134 870.567 C 770.657 924.09 732.006 972.061 678.533 978.05 C 624.397 984.113 575.701 944.878 570.11 890.691 C 564.519 836.505 604.177 788.152 658.41 783.033 z" fill="rgb(255,255,255)" transform="translate(0,0)"></path>
<path d="M 1012.11 757.403 C 1079.98 750.51 1140.56 799.995 1147.36 867.874 C 1154.15 935.752 1104.58 996.267 1036.7 1002.97 C 968.943 1009.66 908.574 960.206 901.791 892.463 C 895.007 824.719 944.372 764.281 1012.11 757.403 z" fill="rgb(31,77,61)" transform="translate(0,0)"></path>
<path d="M 1018.83 782.265 C 1072.76 779.067 1119.08 820.176 1122.31 874.103 C 1125.54 928.031 1084.46 974.374 1030.53 977.635 C 976.562 980.899 930.173 939.776 926.94 885.804 C 923.708 831.832 964.858 785.466 1018.83 782.265 z" fill="rgb(255,255,255)" transform="translate(0,0)"></path>
<path d="M 1377.38 757.336 C 1445.38 754.943 1502.47 808.061 1504.99 876.053 C 1507.5 944.045 1454.48 1001.23 1386.5 1003.87 C 1318.34 1006.51 1260.97 953.329 1258.45 885.166 C 1255.93 817.002 1309.22 759.734 1377.38 757.336 z" fill="rgb(31,77,61)" transform="translate(0,0)"></path>
<path d="M 1367.12 783.536 C 1420.74 775.606 1470.62 812.689 1478.48 866.324 C 1486.34 919.958 1449.19 969.792 1395.54 977.577 C 1342 985.347 1292.28 948.282 1284.44 894.751 C 1276.6 841.219 1313.6 791.451 1367.12 783.536 z" fill="rgb(255,255,255)" transform="translate(0,0)"></path>
<path d="M 1340.13 272.5 C 1369 271.887 1405.77 268.788 1407.43 309.835 C 1408.54 337.497 1407.85 365.574 1407.87 393.304 L 1407.62 566.5 C 1407.77 605.568 1407.68 644.637 1407.33 683.704 C 1407.23 697.865 1408.36 711.833 1407.04 726.055 C 1405.34 744.314 1383.94 739.496 1383.24 730.251 C 1381.1 701.886 1382 671.963 1381.99 643.359 L 1381.95 428.814 C 1382 390.401 1382.2 351.978 1381.92 313.57 C 1381.85 304.067 1378.26 298.242 1368.02 297.938 C 1320.44 296.56 1272.65 297.167 1225.07 297.41 C 1216.92 297.451 1213.24 302.836 1213.1 310.221 C 1212.68 332.432 1212.9 355.238 1212.92 377.416 L 1212.78 507.25 L 1213.07 823.5 L 1213.71 923.622 C 1213.75 939.006 1213.92 954.624 1213.51 969.844 C 1213.2 981.456 1206.91 998.683 1193.47 986.532 C 1189.35 982.807 1188.43 979.935 1188.39 974.478 C 1188.09 929.65 1188.12 884.817 1188.06 839.989 L 1187.99 562.792 L 1187.95 384.777 C 1187.94 358.928 1187.02 332.813 1187.57 307.041 C 1188.44 266.587 1235.12 272.475 1262.81 272.509 L 1340.13 272.5 z" fill="rgb(31,77,61)" transform="translate(0,0)"></path>
<path d="M 948.956 417.331 C 975.626 415.984 1007.32 417.903 1034.52 417.351 C 1056.5 418.181 1078.96 416.44 1100.88 417.929 C 1139.12 420.528 1135.98 451.397 1136.06 477.905 L 1136.18 536.655 L 1136.05 681.78 C 1136 706.493 1136.07 731.44 1135.72 756.156 C 1135.55 760.188 1135.11 763.506 1132.97 766.967 C 1124.09 781.344 1110.48 768.627 1110.3 756.254 C 1110.18 748.402 1110.52 740.414 1110.52 732.57 L 1110.48 676.158 L 1110.55 482.975 C 1110.51 474.505 1110.99 457.657 1109.08 449.023 C 1108.85 447.994 1105.15 444.283 1104.1 443.246 C 1092.46 441.196 1051.64 443.066 1037.05 442.855 C 1011.26 443.079 985.434 442.075 959.65 442.244 C 956.62 442.264 945.906 442.962 944.145 444.936 C 942.163 447.16 940.903 456.041 940.838 459.215 C 940.319 484.292 940.339 509.41 940.262 534.496 L 940.275 689.091 C 940.27 711.814 940.618 734.5 940.287 757.229 C 940.043 773.985 917.048 774.171 915.073 759.237 C 914.121 752.037 914.968 743.052 914.911 735.541 L 914.902 656.935 L 914.926 521.56 C 914.932 498.225 914.552 474.582 915.371 451.271 C 916.074 431.286 929.77 419.739 948.956 417.331 z" fill="rgb(31,77,61)" transform="translate(0,0)"></path>
<path d="M 675.523 564.259 C 705.301 562.869 738.855 564.771 769.101 564.056 C 789.555 564.953 812.8 562.515 833.024 564.782 C 853.732 567.104 863.79 586.851 863.061 605.757 C 862.625 617.043 863.201 628.927 863.185 639.909 L 863.04 730.17 L 863.205 893.81 C 863.212 920.857 863.376 947.981 862.976 975.029 C 863.307 997.221 838.341 991.352 837.932 974.512 C 837.612 961.351 838.166 946.374 838.149 933.105 L 837.97 831.5 C 838.453 773.931 838.56 716.359 838.29 658.789 C 838.214 644.325 840.091 613.491 837.635 600.976 C 836.897 597.212 835.377 593.693 831.954 591.651 C 829.262 590.044 825.956 589.613 822.889 589.443 C 801.544 588.26 779.434 589.461 758.02 589.416 C 744.673 589.388 684.461 587.208 674.891 590.173 C 658.195 595.347 676.605 716.735 664.871 734.702 C 663.341 737.046 660.985 738.509 658.241 738.997 C 654.575 739.651 650.989 738.584 648.068 736.331 C 645.111 734.049 644.01 731.194 643.507 727.586 C 640.832 708.407 642.838 686.561 642.842 667.14 C 642.847 644.827 640.874 615.041 643.863 593.689 C 644.734 587.467 646.293 582.578 650.194 577.575 C 656.553 569.419 665.576 565.736 675.523 564.259 z" fill="rgb(31,77,61)" transform="translate(0,0)"></path>
<metadata><recraft-signature>{"signed_by": "recraft", "signature_b64": "EOE1Dv6J5wqH6zmxt5A1SZ8CewLLn7+rNIyhTgDnGoG1SNQV2UPUPmQv4Y8BxR9Gyi4zerZBdzlqsltNLmINBQ==", "signing_algo": "Ed25519", "generation_timestamp": 1783260143, "identifier": "42130ad6-8441-4a0f-91c2-f029b93851e5"}</recraft-signature></metadata></svg>