<svg xmlns="http://www.w3.org/2000/svg" height="1024" preserveAspectRatio="none" style="display: block;" version="1.1" viewBox="458.0 457.5 1133.5 1133.5" width="1024">
<path d="M 1407.09 980.88 C 1419.49 982.231 1461.28 1031.89 1473.29 1042.56 C 1482.87 1049.72 1476.98 1067.44 1466.28 1067.83 C 1452.89 1068.31 1433.14 1043.04 1423.48 1034.44 C 1420.97 1134.3 1380.21 1229.39 1309.61 1300.07 C 1235.38 1375.46 1134.3 1418.36 1028.51 1419.39 C 922.317 1420.38 820.094 1379.08 744.379 1304.62 C 674.393 1235.17 626.27 1134.09 625.86 1034.75 C 617.869 1041.24 594.344 1068.88 586.476 1067.55 C 545.399 1060.61 599.604 1017.74 611.917 1005.64 C 619.361 998.475 627.205 985.912 637.225 982.666 C 640.536 981.594 643.075 981.721 646.113 983.517 C 653.813 988.072 709.308 1043.83 710.616 1050.72 C 711.39 1054.8 710.543 1058.85 708.024 1062.15 C 705.619 1065.3 702.547 1067.78 698.458 1068.1 C 686.483 1069.04 664.257 1041.98 654.975 1033.49 C 662.913 1119.08 681.857 1184.88 737.431 1253.24 C 800.108 1329.75 890.606 1378.24 989.026 1388.03 C 1176.03 1406.74 1351.08 1277.39 1387.3 1093.65 C 1391.32 1073.26 1392.96 1054.62 1394.99 1033.99 C 1390.67 1037.48 1336.67 1099.72 1339.56 1048.35 C 1339.79 1044.29 1401.53 983.408 1407.09 980.88 z" fill="rgb(31,77,61)" transform="translate(0,0)"></path>
<path d="M 1005.75 629.433 C 1011.88 629.137 1018.02 628.997 1024.16 629.013 C 1129.71 629.23 1230.93 671.042 1305.86 745.383 C 1355.76 794.885 1391.71 856.678 1410.08 924.521 C 1412.88 934.967 1416.69 949.415 1417.05 960.26 C 1416.83 961.184 1416.61 962.108 1416.39 963.032 C 1404.74 962.824 1399.01 962.064 1390.06 970.375 C 1380.49 907.511 1351.73 842.398 1310.14 794.141 C 1237.42 709.749 1153.4 667.953 1043.26 660.053 C 966.338 657.554 899.962 672.584 833.194 712.447 C 759.763 756.952 704.06 825.57 675.599 906.582 C 667.441 929.805 664.578 947.207 658.722 970.37 C 648.791 961.693 644.008 961.382 631.298 965 C 638.886 895.677 677.046 818.337 722.931 766.442 C 797.273 682.361 894.193 636.457 1005.75 629.433 z" fill="rgb(31,77,61)" transform="translate(0,0)"></path>
<metadata><recraft-signature>{"signed_by": "recraft", "signature_b64": "Xq6NcgoosT8XaooO84WUNEUua3zTh1ioPR/Snc9EeBU1nZgNAsEyGCOv7hPhj/8bLb1reUpOn1hiRV80M01cDA==", "signing_algo": "Ed25519", "generation_timestamp": 1783260080, "identifier": "8760fcaa-3c03-452e-b8f1-3c7dbbf18b8f"}</recraft-signature></metadata></svg>