<svg xmlns="http://www.w3.org/2000/svg" height="1024" preserveAspectRatio="none" style="display: block;" version="1.1" viewBox="572.4 574.7 902.5 902.5" width="1024">
<path d="M 1198.39 665.128 C 1232.22 663.409 1250.98 672.498 1282.62 681.287 C 1296.72 685.204 1317.8 679.188 1330.13 687.968 C 1333.56 690.409 1334.02 703.835 1334 708.155 C 1332.92 724.823 1335.87 780.603 1332.87 793.647 C 1332.32 796.1 1331.04 798.328 1329.2 800.037 C 1315.07 813.105 1261.78 791.692 1244.43 787.516 C 1231.69 784.451 1226.66 783.856 1213.31 783.432 L 1213.38 970.178 C 1231.07 970.11 1360.04 967.867 1365.61 972.292 C 1368.81 974.83 1370.19 980.925 1370.54 984.709 C 1372.05 1001.52 1370.79 1019.47 1370.76 1036.44 L 1370.73 1134.7 L 1370.51 1292.28 C 1370.46 1316.95 1370.75 1341.67 1370.4 1366.32 C 1370.19 1380.97 1369.48 1386.48 1353.67 1386.77 C 1339.24 1387.04 1324.88 1386.94 1310.46 1386.9 L 1234.86 1386.82 L 990.5 1386.85 L 789.334 1386.56 C 756.759 1386.51 724.17 1386.97 691.605 1386.56 C 686.356 1386.49 679.321 1384.27 677.985 1378.42 C 676.091 1369.7 676.392 1360.45 676.471 1351.5 C 676.765 1318.13 676.365 1284.76 676.115 1251.41 C 676.083 1247.13 677.348 1243.23 679.544 1239.6 C 690.3 1232.19 733.147 1234.74 747.862 1234.75 L 854.777 1234.9 L 854.71 1158.5 C 854.706 1145.57 854.416 1132.57 855.183 1119.66 C 855.14 1112.66 859.68 1106.51 867.183 1106.11 C 883.828 1105.23 901.382 1105.63 918.113 1105.56 L 1027.08 1105.1 L 1027.29 1029.28 C 1027.24 1019.36 1025.26 980.881 1030.84 974.418 C 1042.97 967.571 1079.76 969.948 1094.85 970.006 L 1189.89 970.202 C 1190.86 897.784 1189.66 825.02 1190.41 752.426 C 1190.65 728.578 1189.22 697.115 1191.28 673.174 C 1191.57 669.787 1195.62 666.998 1198.39 665.128 z" fill="rgb(31,77,61)" transform="translate(0,0)"></path>
<path d="M 699.876 1258.94 C 780.417 1257.69 864.283 1259 945.186 1258.95 L 1345.54 1258.98 C 1346.57 1291.89 1345.86 1328.79 1345.62 1361.95 C 1325.56 1363.03 1296.13 1362.15 1275.55 1362.18 L 1135.05 1362.27 L 699.896 1362.22 C 699.715 1327.79 699.709 1293.36 699.876 1258.94 z" fill="rgb(255,255,255)" transform="translate(0,0)"></path>
<path d="M 879.172 1129.07 L 1343.61 1129.2 C 1343.83 1139.98 1345.29 1230.15 1342.66 1233.57 L 879.027 1233.65 L 879.172 1129.07 z" fill="rgb(255,255,255)" transform="translate(0,0)"></path>
<path d="M 1050.84 993.056 L 1345.87 993.362 L 1345.81 1105.28 C 1309.89 1105.91 1272.88 1105.4 1236.86 1105.4 L 1051.01 1105.68 C 1050.17 1068.89 1050.81 1030 1050.84 993.056 z" fill="rgb(255,255,255)" transform="translate(0,0)"></path>
<path d="M 1214.01 690.007 C 1236.39 690.046 1252.95 699.192 1274.49 703.237 C 1286.23 705.442 1297.59 705.893 1309.42 707.007 C 1309.48 731.124 1309.55 756.445 1309.09 780.519 C 1287.05 777.405 1272.27 769.872 1251.49 764.119 C 1241.51 761.355 1224.27 761.121 1213.66 760.811 C 1213.53 737.209 1213.65 713.606 1214.01 690.007 z" fill="rgb(255,255,255)" transform="translate(0,0)"></path>
<metadata><recraft-signature>{"signed_by": "recraft", "signature_b64": "mUk9spGqkCd5hxThbrvyFBHsiZiYhNGu6Mxy/FE90q2e6xDN5Rxa7OXjdjMXEUr7dd7TeaKTG7B1we1/RT2fDQ==", "signing_algo": "Ed25519", "generation_timestamp": 1783260248, "identifier": "8f6c55b0-e054-412e-aa54-4d77c7bf907c"}</recraft-signature></metadata></svg>