<svg xmlns="http://www.w3.org/2000/svg" height="1024" preserveAspectRatio="none" style="display: block;" version="1.1" viewBox="628.2 627.8 791.6 791.6" width="1024">
<path d="M 1245.97 1182.52 C 1245.11 1123.93 1245.45 1064.19 1245.29 1005.53 L 1245 947.327 C 1244.67 890.653 1244.41 896.718 1297.88 917.648 C 1327.37 929.19 1320.51 935.662 1320.2 966.479 L 1320.02 1018.5 L 1320.02 1267.24 C 1222.49 1245.09 1143.58 1263.48 1059.51 1316.66 C 1049.8 1322.8 1035.14 1338.14 1025.2 1340.1 C 1015.98 1341.92 998.442 1323.77 989.892 1318.25 C 973.854 1307.88 958.484 1299.21 941.332 1290.98 C 865.71 1254.7 807.243 1251.24 726.844 1265.77 L 726.935 1048.27 C 726.915 1012.78 726.753 977.059 727.116 941.584 C 727.145 938.798 727.592 930.954 729.092 929.307 C 739.449 917.932 771.769 907.672 786.135 903.074 C 796.987 901.958 800.659 905.639 800.795 916.387 C 801.177 946.515 801.017 976.664 801.007 1006.8 L 801.025 1182.62 C 891.978 1196.39 961.306 1230.78 1023.11 1299.88 C 1086.63 1235.36 1153.88 1192.43 1245.97 1182.52 z" fill="rgb(147,105,30)" transform="translate(0,0)"></path>
<path d="M 1274.55 939.298 L 1290.88 948.477 L 1290.47 1096.6 C 1290.67 1140.32 1291.63 1187.29 1290.61 1230.83 C 1247.77 1226.57 1207.86 1227.02 1165.75 1238.42 C 1161.64 1239.53 1150.72 1242.67 1147.07 1244.33 L 1145.44 1242.23 C 1171.36 1229.96 1199.87 1220.5 1228.33 1216.61 C 1240.45 1214.96 1254.19 1215.33 1265.92 1212.47 C 1269.32 1211.64 1272.93 1209.55 1274.22 1206.13 C 1276.7 1199.57 1274.95 968.015 1274.55 939.298 z" fill="rgb(255,255,255)" transform="translate(0,0)"></path>
<path d="M 756.35 947.72 C 761.459 944.734 766.531 942.746 771.973 940.451 C 772.155 964.409 769.921 1198.43 772.496 1205.4 C 773.807 1208.95 777.211 1210.93 780.71 1211.88 C 791.685 1214.84 804.448 1214.24 815.832 1215.79 C 845.963 1219.88 875.772 1229.64 903.081 1242.91 L 902.737 1245.27 C 899.872 1243.69 887.407 1239.65 883.639 1238.55 C 842.137 1226.48 798.549 1226.13 755.967 1230.71 L 756.632 1030.05 C 756.66 1002.87 755.849 974.676 756.35 947.72 z" fill="rgb(255,255,255)" transform="translate(0,0)"></path>
<path d="M 1147.07 1244.33 C 1145.54 1244.77 1139.5 1247.37 1138.47 1246.42 L 1138.49 1246.17 C 1140.32 1244.46 1143.12 1243.35 1145.44 1242.23 L 1147.07 1244.33 z" fill="rgb(227,205,163)" transform="translate(0,0)"></path>
<path d="M 903.081 1242.91 C 904.79 1243.7 909.65 1245.79 910.482 1247.32 C 910.161 1248.79 903.521 1245.58 902.737 1245.27 L 903.081 1242.91 z" fill="rgb(227,205,163)" transform="translate(0,0)"></path>
<path d="M 939.019 826.484 C 938.547 802.219 947.343 735.122 962.669 718.781 C 1005.98 672.606 1020.53 774.702 1022.12 795.813 C 1023.21 797.422 1023.03 797.447 1024.81 797.874 C 1026.4 772.452 1037.3 703.885 1068.25 707.393 C 1105.44 711.608 1110 830.346 1110.07 855.256 C 1109.97 859.665 1109.82 864.61 1110.16 868.985 C 1109.18 901.37 1106.11 993.759 1079.79 1015.96 C 1042.38 1047.52 1025.73 950.042 1024.84 926.489 C 1024.67 926.362 1024.1 925.774 1023.69 925.802 C 1023.44 925.82 1023.19 926.141 1023.07 926.313 C 1022.92 926.539 1022.71 927.147 1022.62 927.326 C 1022.43 927.704 1022.2 928.066 1021.99 928.435 C 1022.1 950.136 1011.56 992.419 999.133 1011.3 C 992.395 1021.54 976.977 1025.08 968.243 1015.65 C 942.222 987.568 940.332 931.129 937.921 895.102 L 936.072 895.787 C 934.733 915.417 920.326 970.627 889.089 951.01 C 869.42 938.659 869.319 903.608 854.967 888.416 C 846.46 879.411 807.349 883.79 794.632 880.192 C 785.024 879.579 779.935 867.03 787.457 860.989 C 798.948 851.761 834.771 857.561 849.154 856.942 C 859.971 848.264 863.458 844.203 864.553 829.973 C 866.151 809.212 886.855 757.998 914.515 780.688 C 927.365 791.23 934.433 812.847 936.299 829.197 C 938.436 830.194 937.797 828.959 939.019 826.484 z" fill="rgb(147,105,30)" transform="translate(0,0)"></path>
<path d="M 939.019 826.484 C 939.403 834.005 938.572 841.216 937.978 848.688 C 937.41 845.225 935.869 832.61 936.299 829.197 C 938.436 830.194 937.797 828.959 939.019 826.484 z" fill="rgb(197,160,87)" transform="translate(0,0)"></path>
<path d="M 1022.94 908.422 C 1023.3 911.456 1025.1 924.306 1024.84 926.489 C 1024.67 926.362 1024.1 925.774 1023.69 925.802 C 1023.44 925.82 1023.19 926.141 1023.07 926.313 C 1022.92 926.539 1022.71 927.147 1022.62 927.326 C 1022.43 927.704 1022.2 928.066 1021.99 928.435 C 1021.64 922.313 1022.43 914.662 1022.94 908.422 z" fill="rgb(197,160,87)" transform="translate(0,0)"></path>
<path d="M 1022.12 795.813 C 1023.21 797.422 1023.03 797.447 1024.81 797.874 C 1025.07 802.416 1024.52 804.119 1023.9 808.664 C 1023.22 805.668 1022.73 802.839 1022 799.82 C 1022.02 798.484 1022.06 797.148 1022.12 795.813 z" fill="rgb(227,205,163)" transform="translate(0,0)"></path>
<path d="M 936.11 890.346 C 936.096 888.107 936.261 885.911 936.419 883.681 L 936.32 884.338 C 936.715 882.32 936.402 882.94 937.049 882.331 C 938.346 882.564 938.238 889.788 938.312 890.959 L 936.11 890.346 z" fill="rgb(197,160,87)" transform="translate(0,0)"></path>
<path d="M 936.11 890.346 L 938.312 890.959 C 938.198 892.342 938.068 893.723 937.921 895.102 L 936.072 895.787 L 936.11 890.346 z" fill="rgb(227,205,163)" transform="translate(0,0)"></path>
<path d="M 981.292 736.732 C 983.383 739.123 984.177 741.212 985.237 744.149 C 1004.15 796.558 1003.75 941.89 982.023 989.766 C 980.236 987.743 979.091 985.129 978.221 982.641 C 958.755 926.947 958.954 788.543 981.292 736.732 z" fill="rgb(255,255,255)" transform="translate(0,0)"></path>
<path d="M 1065.62 738.569 C 1068.36 741.028 1069.58 744.838 1070.72 748.216 C 1087.56 798.017 1088 945.352 1066.53 989.418 C 1064.17 987.401 1062.17 981.965 1061.24 979.014 C 1044.29 925.086 1042.92 786.53 1065.62 738.569 z" fill="rgb(255,255,255)" transform="translate(0,0)"></path>
<path d="M 900.34 805.466 C 908.967 813.531 910.861 842.837 911.042 853.968 C 911.431 877.8 912.249 903.64 899.571 924.67 L 895.901 916.53 C 889.669 894.525 889.648 888.547 875.634 870.064 C 895.137 847.057 886.979 829.565 900.34 805.466 z" fill="rgb(255,255,255)" transform="translate(0,0)"></path>
<path d="M 1111.84 851.73 C 1112.75 829.071 1118.6 776.243 1148.44 776.332 C 1185.21 776.442 1179.37 834.95 1194.17 853.079 C 1202.83 863.689 1250.23 849.056 1260.71 861.283 C 1270.31 877.607 1257.5 881.679 1242.61 882.185 L 1218.66 882.897 C 1202.59 883.384 1191.38 883.874 1185.45 902.906 C 1179.92 920.657 1175.06 946.388 1155.66 955.388 C 1120.84 968.545 1112.67 896.683 1111.72 878.636 C 1110.49 874.507 1110.59 873.394 1110.16 868.985 C 1109.82 864.61 1109.97 859.665 1110.07 855.256 C 1110.47 854.013 1111.2 852.88 1111.84 851.73 z" fill="rgb(147,105,30)" transform="translate(0,0)"></path>
<path d="M 1110.07 855.256 C 1110.47 854.013 1111.2 852.88 1111.84 851.73 C 1112.06 859.838 1112.17 870.629 1111.72 878.636 C 1110.49 874.507 1110.59 873.394 1110.16 868.985 C 1109.82 864.61 1109.97 859.665 1110.07 855.256 z" fill="rgb(227,205,163)" transform="translate(0,0)"></path>
<path d="M 1148.66 804.709 C 1158.46 814.344 1158.89 846.397 1165.72 859.097 C 1168.7 864.635 1170.26 866.274 1174.25 870.982 C 1159.36 886.925 1159.22 896.008 1154.28 916.486 C 1152.3 921.139 1151.37 922.653 1148.58 926.901 C 1147.09 923.972 1145.8 920.944 1144.73 917.837 C 1134.85 889.659 1135.05 832.759 1148.66 804.709 z" fill="rgb(255,255,255)" transform="translate(0,0)"></path>
<metadata><recraft-signature>{"signed_by": "recraft", "signature_b64": "MmIO8nKaCWripBUF/0rwHml9fT1VL6tENA9bU3JTgQjnJuEkL23Cwm4MD5ouHw/6NZSGCMPZP6S1L+Jqu2lAAg==", "signing_algo": "Ed25519", "generation_timestamp": 1783260145, "identifier": "b081eb4b-0b59-4626-812d-e6a853c46ead"}</recraft-signature></metadata></svg>