<svg xmlns="http://www.w3.org/2000/svg" height="1024" preserveAspectRatio="none" style="display: block;" version="1.1" viewBox="83.1 167.5 1832.1 1832.1" width="1024">
<path d="M 1671.31 441.661 L 1446.9 536.067 L 1358.62 573.386 C 1349.73 577.226 1297.49 600.915 1292.2 600.569 L 1291.37 599.016 C 1293.32 595.686 1348.04 569.948 1356.29 565.823 L 1520.13 483.994 L 1659.66 414.688 C 1681.54 403.933 1710.01 388.879 1731.93 379.768 C 1723.29 479.41 1715.35 579.112 1708.12 678.866 L 1700.53 784.629 C 1700.04 790.912 1698.2 822.922 1696.5 826.133 C 1693.46 827.377 1695.09 827.008 1691.27 826.428 C 1688.95 822.817 1691.74 733.403 1691.51 721.95 C 1689.82 636.391 1697.02 548.825 1693.9 463.582 L 1376.4 933.786 C 1327.59 1006.92 1278.37 1079.78 1228.75 1152.36 C 1196.91 1199.66 1163.82 1250.49 1131.01 1296.83 L 926.939 1133 C 893.023 1105.67 855.324 1073.65 820.821 1047.83 L 488.302 1494.28 L 378.167 1641.06 L 313.409 1726.77 C 300.086 1744.41 284.797 1763.79 272.227 1781.77 L 269.302 1780.79 C 307.08 1718.9 348.859 1655.92 387.962 1594.63 L 797.907 960.437 L 1027.77 1132.09 C 1057.29 1154.43 1091.67 1178.65 1119.86 1201.65 C 1157.72 1150.71 1193.79 1098.79 1230.95 1047.45 L 1438 763.043 C 1494.82 683.91 1552.11 605.119 1609.88 526.673 C 1630.65 498.287 1650.08 469.934 1671.31 441.661 z" fill="rgb(147,105,30)" transform="translate(0,0)"></path>
<path d="M 269.302 1780.79 L 272.227 1781.77 C 271.351 1782.9 268.013 1787.75 266.44 1787.35 C 265.588 1785.61 268.271 1782.11 269.302 1780.79 z" fill="rgb(197,162,80)" transform="translate(0,0)"></path>
<metadata><recraft-signature>{"signed_by": "recraft", "signature_b64": "ecTz2ak0U/FHyNQ1AufLVc0OyX/rKs9xJEg2wsQUCT5+j3JxSlP87Brt4z1sLAWsW/ghedBAukNQRxMiIHvnDQ==", "signing_algo": "Ed25519", "generation_timestamp": 1783260137, "identifier": "52cef86b-4264-43d4-8a07-d8fbb8b0ae93"}</recraft-signature></metadata></svg>