<svg xmlns="http://www.w3.org/2000/svg" height="1024" preserveAspectRatio="none" style="display: block;" version="1.1" viewBox="357.7 361.6 1328.0 1328.0" width="1024">
<path d="M 1055.88 494.674 C 1153.07 488.938 1236.51 563.097 1242.22 660.297 C 1247.92 757.496 1173.74 840.911 1076.54 846.589 C 979.379 852.265 896.007 778.118 890.302 680.96 C 884.597 583.802 958.719 500.408 1055.88 494.674 z" fill="rgb(147,105,30)" transform="translate(0,0)"></path>
<path d="M 1050.79 531.375 C 1127.56 522.89 1196.68 578.248 1205.16 655.021 C 1213.65 731.793 1158.29 800.907 1081.52 809.392 C 1004.75 817.876 935.632 762.518 927.148 685.746 C 918.663 608.974 974.021 539.86 1050.79 531.375 z" fill="rgb(255,255,255)" transform="translate(0,0)"></path>
<path d="M 909.398 826.441 C 928.97 826.525 944.102 828.861 962.523 835.607 C 1021.45 857.184 1041.79 911.974 1067.37 963.79 C 1087.08 1002.77 1105.66 1042.32 1123.09 1082.38 C 1134.26 1041.42 1138.73 994.004 1141.14 951.58 C 1142.34 929.66 1139.6 907.888 1142.89 886.153 C 1147.39 856.453 1171.13 838.241 1200.61 838.61 C 1215.63 838.798 1232.21 847.235 1242.72 858.74 C 1272.77 891.639 1269.65 943.206 1269.68 984.935 C 1266.18 1070.85 1241.86 1199.85 1180.96 1264.34 C 1165.21 1279.15 1140.14 1290.49 1118.61 1288.99 C 1060.85 1284.98 1029.93 1229.53 1000.97 1186.82 C 988.235 1168.04 975.308 1149.45 962.531 1130.72 L 911.476 1055.33 C 903.74 1044.04 873.857 1005.34 875.014 993.026 C 875.469 988.47 877.722 984.284 881.275 981.395 C 885.293 978.01 890.557 976.483 895.764 977.194 C 906.917 978.762 914.056 992.542 919.701 1001.24 C 928.67 1015.05 937.714 1028.67 947.01 1042.27 L 1019.08 1147.26 C 1033.29 1167.97 1047.81 1190.01 1062.66 1209.94 C 1075.68 1227.42 1092.82 1248.43 1115.73 1250.68 C 1128.62 1251.94 1142.08 1247.51 1151.72 1239.35 C 1197.94 1200.22 1221.44 1095.68 1228.76 1039.04 C 1235.17 1001.67 1236.23 961.535 1232.7 923.36 C 1230.79 902.68 1223.36 871.971 1194.56 875.987 C 1176.12 878.558 1180.73 908.028 1180.56 922.305 C 1180.33 934.586 1179.9 946.862 1179.27 959.128 C 1176.44 1015.11 1165.58 1076.42 1148.66 1130.14 C 1145.41 1140.48 1142.04 1155.81 1129.54 1156.65 C 1124.9 1157.46 1116.92 1155.6 1114.05 1151.22 C 1107.36 1140.99 1103.16 1126.46 1098.38 1115.13 C 1080.5 1072.71 1059.73 1031.37 1039.6 990.027 C 1027.46 965.35 1017.7 940.574 1002.84 917.271 C 953.346 842.325 870.763 839.772 819.666 914.608 C 800.157 943.181 789.912 966.091 776.728 997.815 C 744.577 1075.18 727.208 1157.61 717.644 1240.61 C 714.124 1271.17 711.734 1315 718.296 1344.95 C 721.852 1361.27 727.995 1376.91 736.49 1391.29 C 743.746 1403.57 763.923 1424.47 765.034 1433.28 C 765.621 1437.69 764.296 1442.14 761.394 1445.52 C 758.252 1449.23 753.582 1451.51 748.749 1451.9 C 742.988 1452.36 738.64 1450.28 734.447 1446.5 C 727.714 1440.43 721.949 1432.68 716.598 1425.4 C 692.707 1392.91 679.056 1355.5 677.145 1315.15 C 671.561 1197.25 723.297 964.026 804.36 875.281 C 833.465 843.418 866.376 828.325 909.398 826.441 z" fill="rgb(147,105,30)" transform="translate(0,0)"></path>
<path d="M 961.941 1169.07 C 974.549 1168.35 987.368 1171.11 986.462 1187.12 C 985.672 1201.08 981.703 1216.49 978.8 1230.27 L 964.446 1298.08 L 1144.94 1298.08 C 1184.45 1298.07 1235.62 1295.04 1273.74 1303.7 C 1305.96 1311.01 1345.5 1341.12 1361.98 1370.11 C 1395.11 1428.4 1350.1 1495.08 1297.53 1522.76 C 1259.09 1543.21 1219.32 1554.36 1175.69 1556.38 C 1096.09 1558.95 1009.59 1547.05 932.682 1525.98 C 864.592 1507.33 800.048 1483.19 730.043 1515.26 C 714.585 1522.34 706.633 1531.26 692.754 1539 C 690.442 1539.2 687.306 1539.24 685.022 1538.77 C 679.942 1537.72 675.532 1534.59 672.856 1530.15 C 660.688 1509.92 690.518 1495 704.44 1487.02 C 760.186 1455.18 829.483 1457.85 890.04 1474.92 C 985.523 1502.08 1087.12 1523.02 1186.8 1516.85 C 1241.18 1513.49 1317.74 1486.63 1333.22 1428.4 C 1345.39 1382.63 1294.89 1348.15 1258.06 1339.05 C 1237.22 1333.91 1191.1 1336.27 1168.28 1336.17 C 1110.43 1335.78 1052.58 1335.71 994.724 1335.95 C 977.239 1336.03 950.531 1337.6 933.493 1334.28 C 928.987 1333.4 925.165 1327.03 923.101 1323.15 L 922.485 1321.96 C 922.626 1320.08 922.78 1317.19 923.188 1315.29 C 933.01 1269.62 941.09 1223.3 952.577 1178.07 C 953.312 1175.17 959.571 1170.78 961.941 1169.07 z" fill="rgb(147,105,30)" transform="translate(0,0)"></path>
<metadata><recraft-signature>{"signed_by": "recraft", "signature_b64": "T7biyHCb1mKRZt0CLonOTxzjSGm7m3+vKxsHRApPzAe/DWnzh1895GDpZ1SyhZMkbt+Q+cNFYOIjLdp+MsdVAQ==", "signing_algo": "Ed25519", "generation_timestamp": 1783263468, "identifier": "de900c94-c434-4620-b2ed-5bccfb8a4e77"}</recraft-signature></metadata></svg>