<svg xmlns="http://www.w3.org/2000/svg" height="1024" preserveAspectRatio="none" style="display: block;" version="1.1" viewBox="391.2 391.4 1267.9 1267.9" width="1024">
<path d="M 1116.92 756.521 C 1158.94 756.147 1200.95 756.07 1242.96 756.291 C 1270.17 756.316 1300.62 755.553 1327.54 757.067 C 1385.22 760.785 1439.11 787.139 1477.46 830.393 C 1574.63 939.557 1536.44 1084.91 1412.79 1151.79 C 1401.99 1157.39 1386.56 1159.96 1386.74 1175.4 C 1387.06 1196.5 1404.88 1215.64 1418.87 1229.66 C 1431.94 1242.21 1445.46 1254.92 1461.59 1263.73 C 1475.67 1269 1484 1285.53 1466.68 1292.8 C 1452.45 1298.78 1411 1286.53 1396.72 1282.52 C 1324.79 1259.48 1285.41 1231.49 1235.25 1175.6 C 1224.71 1174.59 1210.75 1174.64 1199.94 1174.45 C 1176.99 1174.09 1154.04 1173.92 1131.09 1173.94 C 1076.61 1173.79 1050.93 1174.14 999.728 1149.48 C 863.043 1083.65 836.205 910.922 952.355 811.232 C 985.489 782.794 1028.26 764.69 1071.46 758.389 C 1086.33 756.221 1101.79 756.638 1116.92 756.521 z" fill="rgb(147,105,30)" transform="translate(0,0)"></path>
<path d="M 1105.06 787.441 C 1109.53 787.307 1114.02 787.225 1118.5 787.196 L 1238.63 787.214 C 1262 787.181 1286.73 786.67 1310.05 787.27 C 1506.55 792.326 1578.68 1030.62 1396.23 1125.18 C 1371.51 1137.99 1354.76 1148.41 1355.8 1179.15 C 1356.94 1213.1 1376.04 1229.12 1398.66 1250.52 C 1386.79 1246.74 1377.25 1243.2 1365.75 1238.54 C 1338.26 1226.75 1325.25 1215.55 1302.1 1197.31 C 1288.46 1188.29 1255.2 1144.65 1241.21 1143.26 C 1147.26 1133.91 1051.43 1165.04 972.766 1094.26 C 938.53 1063.46 915.2 1024.79 912.456 973.578 C 910.085 928.247 926.191 883.891 957.095 850.643 C 997.739 806.135 1046.41 789.885 1105.06 787.441 z" fill="rgb(255,255,255)" transform="translate(0,0)"></path>
<path d="M 1081.59 806.322 C 1089.11 804.947 1092.27 807.445 1097.91 812.321 C 1148.79 856.305 1177.23 919.676 1169.11 987.946 C 1162.47 1041.46 1135.19 1090.26 1093.09 1123.94 C 1078.96 1122.73 1069.01 1120.97 1055.22 1117.7 L 1052.59 1116.74 L 1052.04 1115.36 C 1077.03 1098.36 1095.95 1082.51 1112.39 1056.61 C 1170.3 965.408 1134.76 868.756 1047.98 813.53 C 1058.26 810.421 1071.04 807.913 1081.59 806.322 z" fill="rgb(147,105,30)" transform="translate(0,0)"></path>
<path d="M 731.43 756.456 L 861.814 756.629 C 900.067 756.569 960.751 753.47 995.173 763.686 C 978.118 770.498 967.075 777.971 951.646 787.938 C 930.034 788.717 904.399 787.749 882.328 787.528 L 788.106 787.302 C 761.316 787.19 727.47 785.787 701.739 790.746 C 673.714 796.223 647.18 807.616 623.909 824.163 C 521.556 897.747 522.636 1037.49 627.665 1108.74 C 644.455 1120.13 675.865 1130.83 685.866 1147.93 C 708.42 1186.52 679.082 1230.15 646.757 1251.67 C 709.858 1230.68 746.993 1206.77 789.617 1155.98 C 805.263 1137.33 827.049 1140.79 849.407 1140.97 L 951.823 1140.82 C 965.632 1151.84 978.65 1158.54 994.403 1165.99 C 948.484 1179.6 867.522 1171.08 815.906 1174.16 C 810.072 1178.08 782.746 1207.49 773.526 1215.73 C 722.608 1261.17 658.303 1288.84 590.298 1294.56 C 580.104 1295.43 573.111 1289.93 572.636 1279.6 C 572.111 1268.19 590.163 1262.1 598.142 1256.76 C 616.333 1245.07 616.698 1243.3 634.246 1227.93 C 647.059 1216.71 672.048 1181.74 660.181 1162.75 C 659.088 1161 631.367 1147.39 626.523 1144.62 C 611.835 1136.11 598.092 1126.07 585.527 1114.66 C 500.419 1036.95 495.031 912.425 573.481 827.921 C 614.346 783.784 671.3 758.015 731.43 756.456 z" fill="rgb(147,105,30)" transform="translate(0,0)"></path>
<metadata><recraft-signature>{"signed_by": "recraft", "signature_b64": "bxMtc4t9zHasw9EsXuHdOx7sW58PWNt0SCe9M4D4u34OC6BM1PeHKfqVfLpJ2mbS5mrKLp4oazPOkNdQ9gMhDg==", "signing_algo": "Ed25519", "generation_timestamp": 1783260249, "identifier": "445b28f1-8cf6-423e-96d2-acc5807c08b3"}</recraft-signature></metadata></svg>